# xmcd
#
# Track frame offsets:
#	150
#	15792
#	29832
#	44790
#	61107
#	74505
#	88572
#	104265
#	118492
#	131897
#	147682
#	161837
#	176060
#	190610
#	205625
#	221975
#	238025
#	252750
#	268517
#
# Disc length: 3747 seconds
# Revision: 5
# Processed by: cddbd v1.5.2PL0 Copyright (c) Steve Scherf et al.
# Submitted via: dBpowerAMP V12.0
#
DISCID=280ea113
DTITLE=Bessie Smith - The Complete Recordings - Vol. 1
DYEAR=1991
DGENRE=Blues
TTITLE0=Down Hearted Blues
TTITLE1=Gulf Coast Blues
TTITLE2=Aggravatin' Papa
TTITLE3=Beale Street Mama
TTITLE4=Baby Won't You Please Come Home
TTITLE5=Oh Daddy Blues
TTITLE6='Tain't Nobody's Bizness If I Do
TTITLE7=Keeps on A-Rainin' (Papa, He Can't Make No Time)
TTITLE8=Mama's Got the Blues
TTITLE9=Outside of That
TTITLE10=Bleeding Hearted Blues
TTITLE11=Lady Luck Blues
TTITLE12=Yodling Blues
TTITLE13=Midnight Blues
TTITLE14=If You Don't, I Know Who Will
TTITLE15=Nobody in Town Can Bake a Sweet Jelly Roll Like Mine
TTITLE16=Jail-House Blues
TTITLE17=St. Louis Gal
TTITLE18=Sam Jones Blues
EXTD=
EXTT0=
EXTT1=
EXTT2=
EXTT3=
EXTT4=
EXTT5=
EXTT6=
EXTT7=
EXTT8=
EXTT9=
EXTT10=
EXTT11=
EXTT12=
EXTT13=
EXTT14=
EXTT15=
EXTT16=
EXTT17=
EXTT18=
PLAYORDER=
